<svg width="20" height="20" viewBox="0 0 20 20" fill="none" xmlns="http://www.w3.org/2000/svg">
<path d="M1.84375 7.21875H10.8438H15.9574L14.7796 8.27906L14.7812 8.28159C14.61 8.436 14.5 8.65734 14.5 8.90653C14.5 9.37256 14.8777 9.75028 15.3438 9.75028C15.5606 9.75028 15.7566 9.66619 15.9062 9.53147L15.9082 9.53372L18.7207 7.00247L18.7188 6.99994C18.89 6.84553 19 6.62391 19 6.375C19 6.12609 18.89 5.90447 18.7188 5.75006L18.7207 5.74781L15.9082 3.21656L15.9062 3.21881C15.7566 3.08437 15.5606 3 15.3438 3C14.8777 3 14.5 3.37772 14.5 3.84375C14.5 4.09266 14.61 4.31428 14.7812 4.46869L14.7793 4.47094L15.9574 5.53125H11.9688H8.3125H4.04256H1.84375C1.37772 5.53125 1 5.90897 1 6.375C1 6.84103 1.37772 7.21875 1.84375 7.21875ZM18.1562 12.8438H15.9574H11.6875H8.03125H4.04256L5.22072 11.7834L5.21875 11.7815C5.39031 11.6268 5.5 11.4054 5.5 11.1562C5.5 10.6902 5.12228 10.3125 4.65625 10.3125C4.43913 10.3125 4.24338 10.3969 4.09375 10.531L4.09178 10.5288L1.27928 13.06L1.28125 13.0623C1.10997 13.2172 1 13.4386 1 13.6875C1 13.9364 1.10997 14.1578 1.28125 14.3127L1.27928 14.3147L4.09178 16.8459L4.09375 16.844C4.24338 16.9784 4.43941 17.0625 4.65625 17.0625C5.12228 17.0625 5.5 16.6848 5.5 16.2188C5.5 15.9698 5.39003 15.7482 5.21875 15.5935L5.22072 15.5913L4.04256 14.5312H10.8438H18.1562C18.6223 14.5312 19 14.1535 19 13.6875C19 13.2215 18.6223 12.8438 18.1562 12.8438Z" fill="#333333"/>
</svg>
