<svg width="24" height="24" viewBox="0 0 24 24" fill="none" xmlns="http://www.w3.org/2000/svg">
    <path d="M0.520103 3.0006C0.448531 3.00394 0.378318 3.02136 0.313473 3.05187C0.248629 3.08238 0.190424 3.12537 0.142182 3.17839C0.0939402 3.23142 0.0566066 3.29345 0.0323135 3.36092C0.00802032 3.42839 -0.00275654 3.49998 0.000598383 3.57162C0.0039533 3.64326 0.0213742 3.71355 0.0518664 3.77845C0.0823585 3.84335 0.125324 3.90159 0.17831 3.94987C0.231296 3.99814 0.293264 4.0355 0.360676 4.0598C0.428087 4.0841 0.49962 4.09488 0.571191 4.09151H5.87583L9.03477 15.6824C9.065 15.7995 9.13326 15.9033 9.22882 15.9773C9.32438 16.0514 9.44183 16.0916 9.56268 16.0915H20.7339C20.8511 16.0907 20.9649 16.0522 21.0585 15.9816C21.152 15.9109 21.2204 15.812 21.2533 15.6995L23.978 6.71651C24.0017 6.63548 24.0063 6.55005 23.9915 6.46694C23.9766 6.38382 23.9426 6.3053 23.8923 6.23755C23.8419 6.16981 23.7766 6.11468 23.7013 6.07652C23.6261 6.03836 23.543 6.0182 23.4586 6.01764L9.56268 6.0006C9.49047 5.99958 9.41878 6.01293 9.35177 6.03988C9.28476 6.06684 9.22377 6.10685 9.17234 6.1576C9.12092 6.20836 9.08008 6.26883 9.05221 6.33552C9.02434 6.4022 9.00998 6.47377 9.00998 6.54605C9.00998 6.61834 9.02434 6.68991 9.05221 6.75659C9.08008 6.82328 9.12092 6.88375 9.17234 6.9345C9.22377 6.98526 9.28476 7.02527 9.35177 7.05222C9.41878 7.07918 9.49047 7.09253 9.56268 7.09151L22.7264 7.10855L20.3337 15.0006H9.9799L6.82096 3.40117C6.78915 3.28563 6.7202 3.18378 6.62479 3.11138C6.52937 3.03898 6.41278 3.00005 6.29305 3.0006H0.571191C0.554171 2.9998 0.537123 2.9998 0.520103 3.0006ZM14.9525 8.71935C14.817 8.73425 14.6921 8.79938 14.6022 8.90192C14.5124 9.00446 14.4642 9.13697 14.4671 9.27333V10.637H13.1048C13.0878 10.6362 13.0707 10.6362 13.0537 10.637C12.9092 10.6437 12.7733 10.7077 12.6758 10.8148C12.5784 10.9219 12.5275 11.0633 12.5343 11.208C12.5411 11.3526 12.605 11.4887 12.712 11.5862C12.819 11.6837 12.9603 11.7347 13.1048 11.7279H14.4671V13.0915C14.4661 13.1638 14.4795 13.2356 14.5064 13.3026C14.5333 13.3697 14.5733 13.4307 14.624 13.4822C14.6747 13.5337 14.7351 13.5746 14.8017 13.6025C14.8684 13.6304 14.9399 13.6447 15.0121 13.6447C15.0843 13.6447 15.1558 13.6304 15.2224 13.6025C15.289 13.5746 15.3494 13.5337 15.4002 13.4822C15.4509 13.4307 15.4908 13.3697 15.5178 13.3026C15.5447 13.2356 15.558 13.1638 15.557 13.0915V11.7279H16.9194C16.9916 11.7289 17.0632 11.7155 17.1302 11.6885C17.1972 11.6616 17.2582 11.6215 17.3096 11.5708C17.361 11.5201 17.4018 11.4596 17.4297 11.3929C17.4575 11.3262 17.4719 11.2547 17.4719 11.1824C17.4719 11.1101 17.4575 11.0386 17.4297 10.9719C17.4018 10.9053 17.361 10.8448 17.3096 10.794C17.2582 10.7433 17.1972 10.7033 17.1302 10.6763C17.0632 10.6493 16.9916 10.636 16.9194 10.637H15.557V9.27333C15.5587 9.19568 15.5438 9.11857 15.5133 9.04716C15.4828 8.97574 15.4374 8.91167 15.3802 8.85923C15.3229 8.80678 15.2552 8.76716 15.1814 8.74304C15.1076 8.71892 15.0296 8.71084 14.9525 8.71935ZM11.0613 16.9097C10.0896 16.9097 9.29021 17.7098 9.29021 18.6824C9.29021 19.655 10.0896 20.4551 11.0613 20.4551C12.0329 20.4551 12.8323 19.655 12.8323 18.6824C12.8323 17.7098 12.0329 16.9097 11.0613 16.9097ZM19.2353 16.9097C18.2637 16.9097 17.4643 17.7098 17.4643 18.6824C17.4643 19.655 18.2637 20.4551 19.2353 20.4551C20.207 20.4551 21.0064 19.655 21.0064 18.6824C21.0064 17.7098 20.207 16.9097 19.2353 16.9097ZM11.0613 18.0006C11.4439 18.0006 11.7424 18.2994 11.7424 18.6824C11.7424 19.0654 11.4439 19.3642 11.0613 19.3642C10.6786 19.3642 10.3801 19.0654 10.3801 18.6824C10.3801 18.2994 10.6786 18.0006 11.0613 18.0006ZM19.2353 18.0006C19.618 18.0006 19.9165 18.2994 19.9165 18.6824C19.9165 19.0654 19.618 19.3642 19.2353 19.3642C18.8527 19.3642 18.5542 19.0654 18.5542 18.6824C18.5542 18.2994 18.8527 18.0006 19.2353 18.0006Z" fill="#55246A"/>
</svg>
