<svg width="21" height="20" viewBox="0 0 21 20" fill="none" xmlns="http://www.w3.org/2000/svg">
<path d="M10.2365 18.9493L10.1985 19.0418C10.1046 19.0032 10.0193 18.9466 9.94745 18.8752L2.4664 11.46L10.2365 18.9493ZM10.2365 18.9493L10.1985 19.0418C10.2924 19.0803 10.393 19.1001 10.4945 19.1M10.2365 18.9493L18.5342 11.4607M18.5342 11.4607L18.5341 11.4607L11.0411 18.876C10.9692 18.9472 10.8839 19.0035 10.7901 19.042C10.6964 19.0804 10.5959 19.1001 10.4945 19.1M18.5342 11.4607C19.99 10.0189 20.603 8.41558 20.6 6.89938C20.597 5.38483 19.9792 3.96511 18.9877 2.8881C17.0167 0.74723 13.5604 -0.0460669 10.4949 2.45113M18.5342 11.4607L10.4949 2.45113M10.4945 19.1C10.4945 19.1 10.4945 19.1 10.4944 19.1L10.4945 19L10.4946 19.1C10.4946 19.1 10.4946 19.1 10.4945 19.1ZM10.4949 2.45113C7.43223 -0.0472037 3.97874 0.747335 2.00986 2.889C1.01938 3.96641 0.402514 5.38641 0.400008 6.9008C0.397499 8.41683 1.01072 10.0195 2.46634 11.46L10.4949 2.45113ZM9.94442 4.0304L9.94434 4.03047L9.94758 4.03368C10.0928 4.17742 10.2894 4.25805 10.4942 4.25818C10.6989 4.2583 10.8955 4.17801 11.0408 4.03462C12.2202 2.88632 13.496 2.42454 14.6716 2.44267C15.8487 2.46083 16.9332 2.96026 17.7283 3.74838C18.5234 4.53649 19.027 5.61097 19.0453 6.77677C19.0636 7.94092 18.5982 9.20479 17.44 10.3735C17.4398 10.3736 17.4397 10.3737 17.4396 10.3738L10.4949 17.2464L3.5615 10.3744C3.56139 10.3743 3.56127 10.3741 3.56116 10.374C1.86621 8.66451 1.62636 6.72192 2.28143 5.19051C2.93793 3.65576 4.49863 2.52007 6.43635 2.43801C7.09841 2.4568 7.74989 2.60723 8.35213 2.88036C8.95542 3.15397 9.49692 3.5451 9.94442 4.0304Z" fill="#333333" stroke="#333333" stroke-width="0.2"/>
</svg>
