<svg width="38" height="38" viewBox="0 0 38 38" fill="none" xmlns="http://www.w3.org/2000/svg">
<circle cx="19" cy="19" r="18.5" fill="white" stroke="#EBEBEB"/>
<path d="M18.9999 11C16.794 11 15 12.794 15 14.9999C15 17.2059 16.794 18.9999 18.9999 18.9999C21.2059 18.9999 22.9999 17.2059 22.9999 14.9999C22.9999 12.794 21.2059 11 18.9999 11ZM18.9999 16.9999C17.897 16.9999 17 16.1029 17 14.9999C17 13.897 17.897 13 18.9999 13C20.1029 13 20.9999 13.897 20.9999 14.9999C20.9999 16.1029 20.1029 16.9999 18.9999 16.9999Z" fill="#777777"/>
<path d="M24.3039 18.8885C23.9129 18.4975 23.2809 18.4975 22.8899 18.8885C20.7459 21.0325 17.256 21.0325 15.111 18.8885C14.72 18.4975 14.088 18.4975 13.6971 18.8885C13.3061 19.2795 13.3061 19.9115 13.6971 20.3035C14.941 21.5475 16.518 22.2565 18.144 22.4415L15.293 25.2924C14.902 25.6834 14.902 26.3154 15.293 26.7064C15.684 27.0974 16.316 27.0974 16.707 26.7064L19 24.4135L21.2929 26.7064C21.4879 26.9014 21.7439 26.9994 21.9999 26.9994C22.2559 26.9994 22.5119 26.9014 22.7069 26.7064C23.0979 26.3154 23.0979 25.6834 22.7069 25.2924L19.856 22.4415C21.4819 22.2565 23.0589 21.5475 24.3029 20.3035C24.6939 19.9125 24.6939 19.2795 24.3039 18.8885Z" fill="#777777"/>
</svg>
