<svg width="38" height="38" viewBox="0 0 38 38" fill="none" xmlns="http://www.w3.org/2000/svg">
<circle cx="19" cy="19" r="18.5" fill="white" stroke="#EBEBEB"/>
<g clip-path="url(#clip0_162_11)">
<path d="M24.2767 19.6851C24.018 19.3584 24.092 19.2131 24.2767 18.9211C24.28 18.9177 26.4153 15.9671 26.6353 14.9664L26.6367 14.9657C26.746 14.6011 26.6367 14.3331 26.108 14.3331H24.3587C23.9133 14.3331 23.708 14.5631 23.598 14.8204C23.598 14.8204 22.7073 16.9524 21.4473 18.3344C21.0407 18.7337 20.8527 18.8617 20.6307 18.8617C20.5213 18.8617 20.3513 18.7337 20.3513 18.3691V14.9657C20.3513 14.5284 20.2267 14.3331 19.858 14.3331H17.1073C16.828 14.3331 16.662 14.5371 16.662 14.7271C16.662 15.1417 17.292 15.2371 17.3573 16.4037V18.9351C17.3573 19.4897 17.2567 19.5917 17.0333 19.5917C16.4387 19.5917 14.9953 17.4511 14.14 15.0011C13.9673 14.5257 13.7987 14.3337 13.35 14.3337H11.6C11.1007 14.3337 11 14.5637 11 14.8211C11 15.2757 11.5947 17.5364 13.7653 20.5231C15.212 22.5617 17.2493 23.6664 19.1027 23.6664C20.2167 23.6664 20.3527 23.4211 20.3527 22.9991C20.3527 21.0511 20.252 20.8671 20.81 20.8671C21.0687 20.8671 21.514 20.9951 22.554 21.9784C23.7427 23.1444 23.938 23.6664 24.6033 23.6664H26.3527C26.8513 23.6664 27.104 23.4211 26.9587 22.9371C26.626 21.9191 24.378 19.8251 24.2767 19.6851Z" fill="#777777"/>
</g>
<defs>
<clipPath id="clip0_162_11">
<rect width="16" height="16" fill="white" transform="translate(11 11)"/>
</clipPath>
</defs>
</svg>
