<svg width="22" height="22" viewBox="0 0 22 22" fill="none" xmlns="http://www.w3.org/2000/svg">
<g clip-path="url(#clip0_4112_384)">
<path d="M7.84976 5.81525L9.69405 7.73196L13.1466 7.36971L9.59779 5.45423C9.56254 5.43637 9.52328 5.42784 9.48379 5.42947L8.01246 5.42678C7.96711 5.42598 7.92256 5.4388 7.88457 5.46359C7.84658 5.48839 7.81691 5.52401 7.79939 5.56585C7.78186 5.60768 7.7773 5.65382 7.78628 5.69828C7.79526 5.74275 7.81737 5.78349 7.84976 5.81525Z" fill="#BED600"/>
<path d="M19.8731 10.1191L17.7505 8.19561C17.5721 8.0336 17.361 7.91185 17.1314 7.83863C16.9018 7.76542 16.6592 7.74244 16.4199 7.77127L6.02196 8.86555L4.30741 7.77302C4.20863 7.71142 4.09301 7.68241 3.97685 7.69008C3.8607 7.69774 3.74989 7.7417 3.66006 7.81575C3.57024 7.88979 3.50595 7.99018 3.47626 8.10274C3.44657 8.2153 3.45299 8.33434 3.49461 8.44305L4.42297 10.7906C4.43803 10.8297 4.46286 10.8642 4.49508 10.8909C4.52729 10.9175 4.56582 10.9355 4.60697 10.9431C5.20468 11.0367 7.58304 11.1217 10.4169 11.1823L8.29016 15.8614C8.27167 15.9018 8.26458 15.9466 8.26965 15.9908C8.27473 16.035 8.29178 16.077 8.31896 16.1123C8.34615 16.1475 8.38244 16.1746 8.42392 16.1908C8.4654 16.2069 8.5105 16.2114 8.55435 16.2038L9.97882 15.9587C10.057 15.945 10.1278 15.9041 10.1789 15.8433L14.0444 11.2546C16.0774 11.2891 18.0255 11.3104 19.3986 11.3231C19.5398 11.3267 19.6787 11.2868 19.7965 11.2088C19.9142 11.1308 20.0052 11.0185 20.057 10.887C20.1087 10.7556 20.1189 10.6115 20.086 10.4741C20.0531 10.3367 19.9788 10.2128 19.8731 10.1191Z" fill="#BED600"/>
</g>
<defs>
<clipPath id="clip0_4112_384">
<rect width="16" height="16" fill="white" transform="translate(8) rotate(30)"/>
</clipPath>
</defs>
</svg>
