<svg width="167" height="48" viewBox="0 0 167 48" fill="none" xmlns="http://www.w3.org/2000/svg">
    <g clip-path="url(#clip0_2218_21)">
        <path d="M15.4317 3.66332L53.8205 24.7581L41.9825 44.3791L3.59367 23.3265L15.4317 3.66332ZM14.7129 0.168587C14.4592 0.168587 14.2479 0.294901 14.121 0.505427L0.12684 23.6633C0.0422834 23.8317 3.02866e-06 24.0002 0.0422815 24.2107C0.08456 24.3791 0.211397 24.5475 0.380511 24.6317L42.363 47.7896C42.4899 47.8317 42.5744 47.8738 42.7013 47.8738C42.9549 47.8738 43.1663 47.7475 43.2932 47.537L57.2873 24.3791C57.4142 24.0844 57.3719 23.6633 57.0337 23.4107L15.0511 0.252796C14.9243 0.210691 14.7975 0.168587 14.7129 0.168587Z" fill="#55246A"/>
        <path d="M14.7131 47.9161C14.4594 47.9161 14.248 47.7898 14.1212 47.5793L0.127017 24.4214C0.000182003 24.2109 0.000182003 23.9161 0.127017 23.7056C0.253853 23.4951 0.507524 23.3266 0.761195 23.3266H14.0366V0.884541C14.0366 0.505593 14.3749 0.126648 14.7554 0.126648C15.1359 0.126648 15.4741 0.505593 15.4741 0.884541V23.3266H42.0673V0.842436C42.0673 0.505594 42.2787 0.252963 42.5746 0.168753C42.8706 0.084542 43.2088 0.210857 43.3779 0.463488C43.4202 0.505593 47.0984 6.23191 50.523 11.9582C57.4144 23.453 57.4144 23.7056 57.4144 24.0424C57.4144 24.4214 57.0761 24.7582 56.6534 24.7582H43.4625V47.1161C43.4625 47.4951 43.1665 47.9161 42.786 47.9161C42.4055 47.9161 42.0673 47.5372 42.0673 47.1161V24.7582H15.4741V47.2003C15.4741 47.5372 15.2627 47.7898 14.9668 47.874C14.8399 47.9161 14.7554 47.9161 14.7131 47.9161ZM1.98727 24.7582L13.9944 44.6319V24.7582H1.98727ZM43.4202 23.3266H55.6387C53.9053 20.2951 47.9863 10.8214 43.4202 3.36875V23.3266Z" fill="#55246A"/>
        <path d="M78.2152 22.5689H71.1547V17.5584H68.8294V30.7373H71.1547V24.7163H78.2152V30.7373H80.5405V17.5584H78.2152V22.5689Z" fill="#55246A"/>
        <path d="M89.9686 17.3059C86.0367 17.3059 83.0349 20.2954 83.0349 24.127C83.0349 27.9586 86.079 30.948 89.9686 30.948C93.8582 30.948 96.9023 27.9586 96.9023 24.127C96.9023 20.2954 93.8582 17.3059 89.9686 17.3059ZM89.9686 28.8007C87.3473 28.8007 85.318 26.7375 85.318 24.127C85.318 21.5164 87.3473 19.4533 89.9686 19.4533C92.5899 19.4533 94.577 21.5164 94.577 24.127C94.577 26.7375 92.5476 28.8007 89.9686 28.8007Z" fill="#55246A"/>
        <path d="M144.212 17.3059C140.28 17.3059 137.278 20.2533 137.278 24.127C137.278 27.9586 140.322 30.948 144.212 30.948C148.102 30.948 151.146 27.9586 151.146 24.127C151.146 20.2954 148.102 17.3059 144.212 17.3059ZM144.212 28.8007C141.591 28.8007 139.561 26.7375 139.561 24.127C139.561 21.5164 141.591 19.4533 144.212 19.4533C146.833 19.4533 148.82 21.5164 148.82 24.127C148.863 26.7375 146.833 28.8007 144.212 28.8007Z" fill="#55246A"/>
        <path d="M137.025 17.5584H134.107L129.076 23.2005V17.5584H126.751V30.7373H129.076V24.6321L134.276 30.7373H137.321L131.402 23.8321L137.025 17.5584Z" fill="#55246A"/>
        <path d="M107.218 23.6216C108.106 23.0321 108.613 22.0637 108.613 20.8847C108.613 18.9479 107.218 17.5584 104.893 17.5584H101.511H99.2699V30.7373H101.511H104.851C107.43 30.7373 109.036 29.1373 109.036 26.9058C109.036 25.4321 108.402 24.2531 107.218 23.6216ZM101.553 19.6637H104.639C105.781 19.6637 106.373 20.2531 106.373 21.0952C106.373 21.9794 105.781 22.5689 104.639 22.5689H101.553V19.6637ZM104.555 28.59H101.553V24.7163H104.555C105.992 24.7163 106.753 25.4742 106.753 26.6531C106.753 27.79 105.992 28.59 104.555 28.59Z" fill="#55246A"/>
        <path d="M164.802 17.5584L160.362 23.8321L155.923 17.5584H153.598V30.7373H155.923V21.2637L160.362 27.6216L164.802 21.2215V30.7373H167.127V17.5584H164.802Z" fill="#55246A"/>
        <path d="M113.898 27.2426V17.5584H111.615V30.7373H113.898L121.17 21.011V30.7373H123.495V17.5584H121.17L113.898 27.2426Z" fill="#55246A"/>
    </g>
    <defs>
        <clipPath id="clip0_2218_21">
            <rect width="167" height="48" fill="white"/>
        </clipPath>
    </defs>
</svg>
