<svg width="1920.000122" height="405.000000" viewBox="0 0 1920 405" fill="none" xmlns="http://www.w3.org/2000/svg" xmlns:xlink="http://www.w3.org/1999/xlink">
	<desc>
			Created with Pixso.
	</desc>
	<defs>
		<clipPath id="clip280_60">
			<rect id="logo" width="80.000000" height="48.000000" transform="translate(370.000000 40.000000)" fill="white" fill-opacity="0"/>
		</clipPath>
		<linearGradient id="paint_linear_280_64_0" x1="430.447754" y1="63.476929" x2="446.937378" y2="63.476929" gradientUnits="userSpaceOnUse">
			<stop stop-color="#005BAA"/>
			<stop offset="0.996800" stop-color="#005BAA" stop-opacity="0.000000"/>
		</linearGradient>
	</defs>
	<rect id="bg" width="1920.000000" height="405.000000" fill="#F4F7FF" fill-opacity="1.000000"/>
	<rect id="logo" width="80.000000" height="48.000000" transform="translate(370.000000 40.000000)" fill="#FFFFFF" fill-opacity="0"/>
	<g clip-path="url(#clip280_60)">
		<path id="Vector" d="M430.448 69.0327L445.627 56.3608L446.934 57.9224L431.754 70.5942L430.448 69.0327Z" fill="url(#paint_linear_280_64_0)" fill-opacity="1.000000" fill-rule="nonzero"/>
		<path id="Vector" d="M371.009 54.1006L371.009 40.7241L373.955 40.7241L373.955 46.0146L379.389 46.0146L379.389 40.7241L382.335 40.7241L382.335 54.1006L379.389 54.1006L379.389 48.7334L373.955 48.7334L373.955 54.1006L371.009 54.1006Z" fill="#005BAA" fill-opacity="1.000000" fill-rule="nonzero"/>
		<path id="Vector" d="M396.121 52.3154C394.765 53.6582 393.065 54.3301 391.021 54.3301C388.982 54.3301 387.287 53.6641 385.943 52.3262C384.598 50.9888 383.926 49.3506 383.926 47.418C383.926 45.4961 384.603 43.8584 385.964 42.5151C387.32 41.1719 389.02 40.5005 391.064 40.5005C393.103 40.5005 394.798 41.1665 396.142 42.5044C397.487 43.8418 398.159 45.48 398.159 47.4126C398.159 49.3398 397.482 50.9722 396.121 52.3154ZM388.156 50.3936C388.922 51.207 389.889 51.6167 391.064 51.6167C392.24 51.6167 393.202 51.2124 393.95 50.4043C394.705 49.5962 395.076 48.5972 395.076 47.4126C395.076 46.2388 394.694 45.2451 393.929 44.4316C393.163 43.6182 392.196 43.2085 391.021 43.2085C389.845 43.2085 388.883 43.6123 388.134 44.4204C387.38 45.2285 387.008 46.2275 387.008 47.4126C387.008 48.5864 387.391 49.5801 388.156 50.3936Z" fill="#005BAA" fill-opacity="1.000000" fill-rule="nonzero"/>
		<path id="Vector" d="M399.87 54.1006L399.87 40.7241L406.085 40.7241C407.627 40.7241 408.797 41.1172 409.584 41.9087C410.196 42.5205 410.502 43.29 410.502 44.2183C410.502 45.4795 409.917 46.4404 408.742 47.1011C409.573 47.418 410.196 47.8379 410.617 48.3516C411.038 48.8647 411.245 49.5581 411.245 50.4263C411.245 51.6216 410.797 52.5337 409.906 53.1558C409.015 53.7783 407.791 54.0894 406.233 54.0894L399.87 54.0894L399.87 54.1006ZM402.74 46.1348L405.457 46.1348C406.872 46.1348 407.578 45.6489 407.578 44.6826C407.578 44.2349 407.414 43.896 407.08 43.6616C406.747 43.4268 406.271 43.3066 405.648 43.3066L402.74 43.3066L402.74 46.1348ZM402.74 51.5234L406.238 51.5234C407.627 51.5234 408.321 51.0269 408.321 50.0327C408.321 49.0664 407.594 48.5806 406.14 48.5806L402.735 48.5806L402.735 51.5234L402.74 51.5234Z" fill="#005BAA" fill-opacity="1.000000" fill-rule="nonzero"/>
		<path id="Vector" d="M424.326 40.7295L424.326 54.106L421.418 54.106L421.418 45.3374L415.564 54.106L412.792 54.106L412.792 40.7295L415.7 40.7295L415.7 49.5034L421.587 40.7295L424.326 40.7295Z" fill="#005BAA" fill-opacity="1.000000" fill-rule="nonzero"/>
		<path id="Vector" d="M371.009 70.4087L371.009 57.0322L373.955 57.0322L373.955 62.8794L379.389 57.0322L382.947 57.0322L377.497 62.7051L383.199 70.4033L379.662 70.4033L375.508 64.7139L373.961 66.3193L373.961 70.4087L371.009 70.4087Z" fill="#005BAA" fill-opacity="1.000000" fill-rule="nonzero"/>
		<path id="Vector" d="M394.82 68.6235C393.464 69.9663 391.764 70.6382 389.72 70.6382C387.681 70.6382 385.986 69.9722 384.642 68.6343C383.297 67.2969 382.625 65.6587 382.625 63.7261C382.625 61.8042 383.302 60.1665 384.663 58.8232C386.019 57.48 387.719 56.8086 389.763 56.8086C391.802 56.8086 393.497 57.4746 394.841 58.8125C396.186 60.1499 396.858 61.7881 396.858 63.7207C396.858 65.6426 396.181 67.2803 394.82 68.6235ZM386.85 66.7017C387.615 67.5151 388.583 67.9248 389.758 67.9248C390.933 67.9248 391.895 67.5205 392.644 66.7124C393.398 65.9043 393.77 64.9053 393.77 63.7207C393.77 62.5469 393.387 61.5532 392.622 60.7397C391.857 59.9263 390.889 59.5166 389.714 59.5166C388.539 59.5166 387.577 59.9204 386.828 60.7285C386.074 61.5366 385.702 62.5356 385.702 63.7207C385.708 64.8945 386.09 65.8882 386.85 66.7017Z" fill="#005BAA" fill-opacity="1.000000" fill-rule="evenodd"/>
		<path id="Vector" d="M398.46 70.4087L398.46 57.0322L401.636 57.0322L405.156 62.6885L408.676 57.0322L411.852 57.0322L411.852 70.4087L408.928 70.4087L408.928 61.6782L405.162 67.3892L405.085 67.3892L401.346 61.7329L401.346 70.4087L398.46 70.4087Z" fill="#005BAA" fill-opacity="1.000000" fill-rule="nonzero"/>
		<path id="Vector" d="M373.955 76.043L373.955 78.3745L377.492 78.3745C378.984 78.3745 380.143 78.7456 380.963 79.4937C381.788 80.2363 382.198 81.2461 382.198 82.5239C382.198 83.8721 381.755 84.9204 380.881 85.6577C380.001 86.3945 378.776 86.7661 377.208 86.7661L371.009 86.7661L371.009 73.3896L381.28 73.3896L381.28 76.043L373.955 76.043ZM377.191 80.8203L373.961 80.8203L373.961 84.1069L377.213 84.1069C378.58 84.1069 379.257 83.5391 379.257 82.4092C379.257 81.3501 378.569 80.8203 377.191 80.8203Z" fill="#005BAA" fill-opacity="1.000000" fill-rule="nonzero"/>
		<path id="Vector" d="M382.646 86.7607L388.386 73.2915L391.103 73.2915L396.842 86.7607L393.765 86.7607L392.54 83.7632L386.872 83.7632L385.647 86.7607L382.646 86.7607ZM387.921 81.1646L391.48 81.1646L389.703 76.8296L387.921 81.1646Z" fill="#005BAA" fill-opacity="1.000000" fill-rule="nonzero"/>
		<path id="Vector" d="M398.46 86.7607L398.46 73.3843L401.406 73.3843L401.406 78.6748L406.84 78.6748L406.84 73.3843L409.786 73.3843L409.786 86.7607L406.84 86.7607L406.84 81.3936L401.406 81.3936L401.406 86.7607L398.46 86.7607Z" fill="#005BAA" fill-opacity="1.000000" fill-rule="nonzero"/>
		<path id="Vector" d="M412.142 86.7607L412.142 73.3843L415.088 73.3843L415.088 79.2314L420.521 73.3843L424.08 73.3843L418.63 79.0571L424.331 86.7554L420.795 86.7554L416.646 81.0605L415.099 82.666L415.099 86.7554L412.142 86.7554L412.142 86.7607Z" fill="#005BAA" fill-opacity="1.000000" fill-rule="nonzero"/>
		<path id="Vector" d="M432.673 41.1499C433.504 41.1499 434.198 41.2539 434.75 41.4614C435.296 41.6689 435.81 42.002 436.286 42.4604C437.27 43.4106 437.767 44.9775 437.767 47.1123C437.767 49.1484 437.281 50.7974 436.324 52.0039C435.367 53.2104 434.045 53.8003 432.285 53.8003C430.803 53.8003 429.464 53.3579 428.311 52.4897L429.551 50.7539C430.464 51.4087 431.41 51.7422 432.361 51.7422C433.203 51.7422 433.881 51.4526 434.378 50.8794C434.859 50.3281 435.154 49.5742 435.258 48.6465L435.324 48.0513L434.865 48.4336C434.214 48.9741 433.372 49.2471 432.361 49.2471C430.995 49.2471 429.896 48.8975 429.103 48.2095C428.311 47.5215 427.923 46.5879 427.923 45.354C427.923 44.1313 428.354 43.1484 429.24 42.3511C430.109 41.5542 431.268 41.1499 432.673 41.1499ZM432.82 46.9263C433.454 46.9263 433.957 46.7681 434.307 46.4517C434.657 46.1401 434.826 45.7417 434.826 45.2451C434.826 44.7427 434.651 44.3442 434.291 44.0273C433.924 43.7051 433.411 43.5415 432.766 43.5415C432.132 43.5415 431.634 43.6997 431.29 44.0166C430.945 44.3276 430.781 44.7373 430.781 45.2612C430.781 45.7583 430.956 46.1514 431.317 46.457C431.678 46.7681 432.186 46.9263 432.82 46.9263ZM432.673 40.686C431.148 40.686 429.885 41.1284 428.917 42.002C427.928 42.8975 427.447 43.9893 427.447 45.3486C427.447 46.7246 427.884 47.7729 428.786 48.5537C429.666 49.3179 430.863 49.7056 432.35 49.7056C433.252 49.7056 434.045 49.5034 434.701 49.105C434.569 49.7002 434.34 50.1914 434.017 50.5684C433.607 51.043 433.066 51.2725 432.356 51.2725C431.503 51.2725 430.65 50.9668 429.814 50.3716L429.437 50.0986L429.163 50.4751L427.923 52.2114L427.66 52.5771L428.021 52.8501C429.262 53.7837 430.694 54.2588 432.279 54.2588C434.192 54.2588 435.63 53.6147 436.685 52.2881C437.712 50.9941 438.232 49.2524 438.232 47.1064C438.232 44.8408 437.685 43.1646 436.608 42.1221C436.089 41.6196 435.521 41.2485 434.914 41.019C434.312 40.8008 433.558 40.686 432.673 40.686ZM431.634 46.1187L431.612 46.1021C431.355 45.8838 431.241 45.627 431.241 45.2612C431.241 44.8682 431.355 44.5786 431.601 44.3604C431.858 44.1255 432.252 44.0054 432.766 44.0054C433.296 44.0054 433.706 44.1313 433.985 44.3716C434.247 44.6006 434.362 44.8682 434.362 45.2393C434.362 45.6108 434.247 45.8784 433.995 46.1021C433.733 46.3369 433.334 46.457 432.82 46.457C432.312 46.4624 431.913 46.3477 431.634 46.1187Z" fill="#005BAA" fill-opacity="1.000000" fill-rule="nonzero"/>
		<path id="Vector" d="M449.202 41.3081L449.202 43.061L445.217 46.3857L446.098 46.4731C448.322 46.8442 449.41 47.9419 449.41 49.8257C449.41 50.9883 449.016 51.9058 448.207 52.6426C447.404 53.3687 446.3 53.7402 444.933 53.7402C442.971 53.7402 441.369 53.0903 440.167 51.813L441.889 50.377C442.807 51.2666 443.84 51.7202 444.972 51.7202C445.573 51.7202 446.076 51.5562 446.464 51.2397C446.863 50.9067 447.065 50.459 447.065 49.9019C447.065 49.2959 446.803 48.8262 446.278 48.4985C445.791 48.1982 445.114 48.0454 444.261 48.0454L442.856 48.0454L442.856 46.4297L446.699 43.2246L440.834 43.2246L440.834 41.3081L449.202 41.3081ZM449.672 40.8442L449.208 40.8442L440.834 40.8442L440.369 40.8442L440.369 41.3081L440.369 43.2246L440.369 43.689L440.834 43.689L445.414 43.689L442.555 46.0747L442.386 46.2168L442.386 46.4351L442.386 48.0513L442.386 48.5151L442.851 48.5151L444.255 48.5151C445.021 48.5151 445.617 48.646 446.026 48.8975C446.415 49.1377 446.595 49.4595 446.595 49.9019C446.595 50.3169 446.453 50.6392 446.163 50.8794C445.863 51.1304 445.464 51.2559 444.966 51.2559C443.966 51.2559 443.036 50.8467 442.211 50.0439L441.91 49.7544L441.588 50.022L439.866 51.458L439.489 51.7744L439.828 52.1348C441.123 53.5107 442.84 54.2095 444.933 54.2095C446.42 54.2095 447.628 53.8003 448.519 52.9922C449.432 52.1675 449.875 51.1304 449.875 49.8311C449.875 47.7617 448.689 46.4897 446.349 46.0527L449.503 43.4214L449.672 43.2793L449.672 43.061L449.672 41.3081L449.672 40.8442Z" fill="#005BAA" fill-opacity="1.000000" fill-rule="nonzero"/>
		<path id="Vector" d="M432.76 73.7607C434.056 73.7607 435.111 74.105 435.887 74.7817C436.663 75.459 437.046 76.3433 437.046 77.4844C437.046 78.1343 436.914 78.7236 436.658 79.2427C436.395 79.7666 436.051 80.231 435.635 80.6294C435.209 81.0386 434.553 81.5737 433.689 82.2183L430.973 84.249L437.177 84.249L437.177 86.1875L427.939 86.1875L427.939 84.3257L432.219 80.9243C433.104 80.2144 433.7 79.6572 434.039 79.2207C434.395 78.7622 434.58 78.2432 434.58 77.6812C434.58 77.0913 434.389 76.6221 434.012 76.2832C433.64 75.9556 433.159 75.7866 432.574 75.7866C432.039 75.7866 431.552 75.9341 431.12 76.2178C430.749 76.4634 430.322 76.8623 429.858 77.4023L428.201 76.1084C428.825 75.3223 429.464 74.7383 430.115 74.356C430.803 73.9683 431.694 73.7607 432.76 73.7607ZM432.76 73.2969C431.612 73.2969 430.645 73.5205 429.879 73.9629C429.18 74.3672 428.491 74.9946 427.835 75.8247L427.545 76.1904L427.912 76.48L429.568 77.7739L429.918 78.0469L430.207 77.7085C430.645 77.2007 431.038 76.8291 431.372 76.6055C431.727 76.3706 432.132 76.2505 432.569 76.2505C433.033 76.2505 433.416 76.376 433.695 76.6328C433.974 76.8838 434.11 77.228 434.11 77.6865C434.11 78.1396 433.963 78.5654 433.668 78.9424C433.35 79.3516 432.777 79.8813 431.924 80.5693L427.644 83.9707L427.469 84.1128L427.469 84.3364L427.469 86.1982L427.469 86.6621L427.934 86.6621L437.171 86.6621L437.636 86.6621L437.636 86.1982L437.636 84.2598L437.636 83.7959L437.171 83.7959L432.361 83.7959L433.963 82.6001C434.843 81.9453 435.51 81.3936 435.952 80.9731C436.406 80.5366 436.783 80.0288 437.067 79.4556C437.357 78.877 437.505 78.2163 437.505 77.4897C437.505 76.2124 437.073 75.2134 436.187 74.438C435.324 73.6792 434.17 73.2969 432.76 73.2969Z" fill="#005BAA" fill-opacity="1.000000" fill-rule="nonzero"/>
		<path id="Vector" d="M449.115 73.8428L449.115 75.6011L445.119 78.937L445.999 79.0298C448.235 79.4009 449.317 80.4985 449.317 82.3931C449.317 83.5557 448.924 84.4785 448.109 85.2158C447.3 85.9473 446.196 86.3184 444.829 86.3184C442.862 86.3184 441.26 85.6689 440.052 84.3857L441.779 82.9497C442.698 83.8398 443.736 84.293 444.868 84.293C445.474 84.293 445.977 84.1289 446.365 83.8125C446.764 83.4795 446.967 83.0317 446.967 82.4746C446.967 81.8687 446.699 81.3936 446.18 81.0718C445.693 80.7715 445.01 80.6187 444.157 80.6187L442.747 80.6187L442.747 78.9971L446.6 75.7812L440.724 75.7812L440.724 73.8647L449.115 73.8647L449.115 73.8428ZM449.579 73.3789L449.115 73.3789L440.719 73.3789L440.254 73.3789L440.254 73.8428L440.254 75.7593L440.254 76.2236L440.719 76.2236L445.316 76.2236L442.446 78.6147L442.277 78.7568L442.277 78.9751L442.277 80.5967L442.277 81.0605L442.741 81.0605L444.152 81.0605C444.917 81.0605 445.518 81.1919 445.928 81.4429C446.316 81.6831 446.497 82.0054 446.497 82.4531C446.497 82.8735 446.354 83.1953 446.059 83.4355C445.759 83.687 445.354 83.8125 444.862 83.8125C443.856 83.8125 442.927 83.4028 442.096 82.6006L441.796 82.311L441.473 82.5786L439.746 84.0146L439.369 84.3311L439.708 84.6914C441.003 86.0728 442.725 86.7715 444.824 86.7715C446.316 86.7715 447.524 86.3623 448.421 85.5488C449.333 84.7188 449.782 83.687 449.782 82.3818C449.782 80.3071 448.59 79.0298 446.245 78.5928L449.41 75.9561L449.579 75.814L449.579 75.5957L449.579 73.8374L449.579 73.3789Z" fill="#005BAA" fill-opacity="1.000000" fill-rule="nonzero"/>
	</g>
</svg>
