<svg width="24" height="24" viewBox="0 0 24 24" fill="none" xmlns="http://www.w3.org/2000/svg">
    <path
        d="M15.3122 12.3416L17.0559 14.0853C17.3448 14.3742 17.743 14.54 18.1484 14.54C18.4873 14.54 18.8024 14.4287 19.0599 14.2182C19.3822 13.9542 19.5786 13.5653 19.5988 13.1513C19.619 12.7371 19.4624 12.3318 19.1684 12.0389L16.1513 9.04444C15.4428 8.34 14.5015 7.95222 13.4999 7.95222H13.4806C14.3957 7.384 15.0084 6.37267 15.0084 5.21844C15.0086 3.44378 13.5646 2 11.7899 2C10.0153 2 8.57126 3.44378 8.57126 5.21844C8.57126 6.37267 9.18393 7.384 10.0993 7.95222H10.0735C9.07237 7.95222 8.13082 8.34 7.42104 9.04556L4.43171 12.0382C4.13837 12.3302 3.98171 12.7358 4.00171 13.15C4.02193 13.564 4.21837 13.9529 4.54059 14.2169C4.79793 14.4273 5.11304 14.5387 5.45215 14.5387C5.85748 14.5387 6.25571 14.3729 6.54637 14.0824L8.26171 12.3493V14.9102L6.60815 16.5624C5.79371 17.3789 5.79371 18.7076 6.60859 19.5244L8.62482 21.5409C8.92059 21.8371 9.31415 22 9.73282 22C10.1635 22 10.5806 21.8198 10.8775 21.5053C11.4517 20.896 11.4222 19.9013 10.8097 19.2867L9.90659 18.3904L11.1519 17.2664C11.5737 17.3111 11.9997 17.3113 12.4217 17.2664L13.667 18.3904L12.7621 19.2887C12.1517 19.9018 12.1221 20.8962 12.6966 21.506C12.9928 21.8198 13.4099 22 13.8408 22C14.2595 22 14.653 21.8371 14.949 21.5411L16.9657 19.5242C17.7802 18.7078 17.7801 17.3791 16.965 16.562L15.3122 14.9104V12.3416ZM11.173 16.3716L9.15037 14.8709V14.5911H14.4233V14.8709L12.4006 16.3716C11.9935 16.4209 11.5793 16.4207 11.173 16.3716Z"
        fill="#333333" />
</svg>