<svg width="29" height="21" viewBox="0 0 29 21" fill="none" xmlns="http://www.w3.org/2000/svg">
<path d="M23.3719 5.95906C23.372 5.53855 23.2052 5.13518 22.9081 4.83754C22.611 4.5399 22.208 4.37231 21.7875 4.37156H18.1V3.14437C18.0995 2.72493 17.9326 2.32282 17.636 2.02626C17.3394 1.7297 16.9373 1.56291 16.5178 1.5625H11.4831C11.0637 1.563 10.6617 1.72982 10.3651 2.02637C10.0686 2.32292 9.90175 2.72499 9.90125 3.14437V4.37156H6.20938C5.78901 4.3728 5.38627 4.54055 5.08932 4.83809C4.79237 5.13562 4.62541 5.5387 4.625 5.95906V16.8372C4.62541 17.2576 4.79237 17.6606 5.08932 17.9582C5.38627 18.2557 5.78901 18.4234 6.20938 18.4247H21.7875C22.208 18.4239 22.611 18.2563 22.9081 17.9587C23.2052 17.6611 23.372 17.2577 23.3719 16.8372V9.14969C23.3761 9.12907 23.3761 9.10781 23.3719 9.08719V5.95906ZM11.4831 2.1875H16.5178C16.7715 2.18775 17.0148 2.28863 17.1943 2.46802C17.3737 2.6474 17.4747 2.89064 17.475 3.14437V4.37156H10.5263V3.14437C10.5266 2.8907 10.6275 2.6475 10.8069 2.46813C10.9863 2.28875 11.2294 2.18783 11.4831 2.1875ZM6.65312 12.6153C6.73601 12.6153 6.81549 12.6482 6.8741 12.7068C6.9327 12.7654 6.96562 12.8449 6.96562 12.9278V16.1028C6.96562 16.1857 6.9327 16.2652 6.8741 16.3238C6.81549 16.3824 6.73601 16.4153 6.65312 16.4153C6.57024 16.4153 6.49076 16.3824 6.43215 16.3238C6.37355 16.2652 6.34062 16.1857 6.34062 16.1028V12.9278C6.34062 12.8449 6.37355 12.7654 6.43215 12.7068C6.49076 12.6482 6.57024 12.6153 6.65312 12.6153ZM6.34062 11.7622V10.9184C6.34062 10.8356 6.37355 10.7561 6.43215 10.6975C6.49076 10.6389 6.57024 10.6059 6.65312 10.6059C6.73601 10.6059 6.81549 10.6389 6.8741 10.6975C6.9327 10.7561 6.96562 10.8356 6.96562 10.9184V11.7622C6.96562 11.8451 6.9327 11.9246 6.8741 11.9832C6.81549 12.0418 6.73601 12.0747 6.65312 12.0747C6.57024 12.0747 6.49076 12.0418 6.43215 11.9832C6.37355 11.9246 6.34062 11.8451 6.34062 11.7622ZM15.5844 9.43094V9.69656C15.584 9.96333 15.4779 10.2191 15.2893 10.4077C15.1006 10.5964 14.8449 10.7025 14.5781 10.7028H13.4219C13.1548 10.7026 12.8987 10.5966 12.7095 10.408C12.5204 10.2194 12.4136 9.96365 12.4125 9.69656V9.43094H5.25V8.80594H12.4125V8.53719C12.413 8.26992 12.5196 8.0138 12.7089 7.8251C12.8982 7.63641 13.1546 7.53061 13.4219 7.53094H14.5781C14.7103 7.53086 14.8412 7.55683 14.9633 7.60737C15.0854 7.65791 15.1964 7.73202 15.2898 7.82548C15.3833 7.91893 15.4574 8.02989 15.5079 8.15201C15.5585 8.27414 15.5845 8.40502 15.5844 8.53719V8.80594H22.7469V9.43094H15.5844Z" fill="#333333"/>
<path d="M14.5782 8.15601H13.422C13.3205 8.15576 13.2231 8.19574 13.151 8.26721C13.079 8.33867 13.0382 8.43578 13.0376 8.53726V9.69663C13.0382 9.79811 13.079 9.89522 13.151 9.96668C13.2231 10.0381 13.3205 10.0781 13.422 10.0779H14.5782C14.6792 10.0775 14.7759 10.0372 14.8474 9.96576C14.9188 9.89435 14.9591 9.79762 14.9595 9.69663V8.53726C14.9591 8.43627 14.9188 8.33954 14.8474 8.26813C14.7759 8.19672 14.6792 8.15642 14.5782 8.15601Z" fill="#333333"/>
<line x1="0.5547" y1="2.16795" x2="27.5547" y2="20.1679" stroke="#F36156" stroke-width="2"/>
</svg>
