<svg width="24" height="24" viewBox="0 0 24 24" fill="none" xmlns="http://www.w3.org/2000/svg">
    <path
        d="M17.7255 11.8737L15.8308 6.84637C15.5529 6.11374 14.9213 5.55795 14.1634 5.3811C13.6834 5.659 13.1024 5.83584 12.4961 5.83584C11.8898 5.83584 11.3087 5.68426 10.8287 5.3811C10.0708 5.55795 9.43923 6.11374 9.16133 6.84637L7.2666 11.8737C7.06449 12.379 7.34239 12.9601 7.84765 13.1622C8.35291 13.3643 8.93396 13.0864 9.13607 12.5811L10.0961 10.0043V13.1369L9.33818 22.6864C9.28765 23.3685 9.79291 23.9495 10.475 24C10.5003 24 10.5508 24 10.5761 24C11.2076 24 11.7382 23.5201 11.7887 22.8632L12.4961 14.0716L13.2034 22.8632C13.254 23.4948 13.7845 24 14.4161 24C14.4413 24 14.4919 24 14.5171 24C15.1992 23.9495 15.7045 23.3432 15.654 22.6864L14.8961 13.1369V10.0043L15.8813 12.5811C16.0329 12.9853 16.4119 13.2379 16.8161 13.2379C16.9424 13.2379 17.0434 13.2127 17.1698 13.1622C17.675 12.9601 17.9276 12.379 17.7255 11.8737Z"
        fill="#333333" />
    <path
        d="M12.4964 4.90105C13.8498 4.90105 14.947 3.80391 14.947 2.45053C14.947 1.09714 13.8498 0 12.4964 0C11.143 0 10.0459 1.09714 10.0459 2.45053C10.0459 3.80391 11.143 4.90105 12.4964 4.90105Z"
        fill="#333333" />
</svg>