<svg width="20" height="18" viewBox="0 0 20 18" fill="none" xmlns="http://www.w3.org/2000/svg">
<path d="M19.3719 4.95906C19.372 4.53855 19.2052 4.13518 18.9081 3.83754C18.611 3.5399 18.208 3.37231 17.7875 3.37156H14.1V2.14437C14.0995 1.72493 13.9326 1.32282 13.636 1.02626C13.3394 0.729698 12.9373 0.562914 12.5178 0.5625H7.48312C7.06374 0.562996 6.66167 0.729817 6.36512 1.02637C6.06857 1.32292 5.90175 1.72499 5.90125 2.14437V3.37156H2.20938C1.78901 3.3728 1.38627 3.54055 1.08932 3.83809C0.792369 4.13562 0.625412 4.5387 0.625 4.95906V15.8372C0.625412 16.2576 0.792369 16.6606 1.08932 16.9582C1.38627 17.2557 1.78901 17.4234 2.20938 17.4247H17.7875C18.208 17.4239 18.611 17.2563 18.9081 16.9587C19.2052 16.6611 19.372 16.2577 19.3719 15.8372V8.14969C19.3761 8.12907 19.3761 8.10781 19.3719 8.08719V4.95906ZM7.48312 1.1875H12.5178C12.7715 1.18775 13.0148 1.28863 13.1943 1.46802C13.3737 1.6474 13.4747 1.89064 13.475 2.14437V3.37156H6.52625V2.14437C6.52658 1.8907 6.6275 1.6475 6.80688 1.46813C6.98625 1.28875 7.22945 1.18783 7.48312 1.1875ZM2.65312 11.6153C2.73601 11.6153 2.81549 11.6482 2.8741 11.7068C2.9327 11.7654 2.96562 11.8449 2.96562 11.9278V15.1028C2.96562 15.1857 2.9327 15.2652 2.8741 15.3238C2.81549 15.3824 2.73601 15.4153 2.65312 15.4153C2.57024 15.4153 2.49076 15.3824 2.43215 15.3238C2.37355 15.2652 2.34062 15.1857 2.34062 15.1028V11.9278C2.34062 11.8449 2.37355 11.7654 2.43215 11.7068C2.49076 11.6482 2.57024 11.6153 2.65312 11.6153ZM2.34062 10.7622V9.91844C2.34062 9.83556 2.37355 9.75607 2.43215 9.69746C2.49076 9.63886 2.57024 9.60594 2.65312 9.60594C2.73601 9.60594 2.81549 9.63886 2.8741 9.69746C2.9327 9.75607 2.96562 9.83556 2.96562 9.91844V10.7622C2.96562 10.8451 2.9327 10.9246 2.8741 10.9832C2.81549 11.0418 2.73601 11.0747 2.65312 11.0747C2.57024 11.0747 2.49076 11.0418 2.43215 10.9832C2.37355 10.9246 2.34062 10.8451 2.34062 10.7622ZM11.5844 8.43094V8.69656C11.584 8.96333 11.4779 9.21909 11.2893 9.40772C11.1006 9.59636 10.8449 9.70248 10.5781 9.70281H9.42188C9.15479 9.70257 8.89867 9.59657 8.70951 9.408C8.52036 9.21944 8.41357 8.96365 8.4125 8.69656V8.43094H1.25V7.80594H8.4125V7.53719C8.413 7.26992 8.5196 7.0138 8.70888 6.8251C8.89815 6.63641 9.15461 6.53061 9.42188 6.53094H10.5781C10.7103 6.53086 10.8412 6.55683 10.9633 6.60737C11.0854 6.65791 11.1964 6.73202 11.2898 6.82548C11.3833 6.91893 11.4574 7.02989 11.5079 7.15201C11.5585 7.27414 11.5845 7.40502 11.5844 7.53719V7.80594H18.7469V8.43094H11.5844Z" fill="#333333"/>
<path d="M10.5782 7.15601H9.42197C9.32049 7.15576 9.22306 7.19574 9.15101 7.26721C9.07896 7.33867 9.03818 7.43578 9.0376 7.53726V8.69663C9.03818 8.79811 9.07896 8.89522 9.15101 8.96668C9.22306 9.03814 9.32049 9.07813 9.42197 9.07788H10.5782C10.6792 9.07747 10.7759 9.03717 10.8474 8.96576C10.9188 8.89435 10.9591 8.79762 10.9595 8.69663V7.53726C10.9591 7.43627 10.9188 7.33954 10.8474 7.26813C10.7759 7.19672 10.6792 7.15642 10.5782 7.15601Z" fill="#333333"/>
</svg>
