<svg width="16" height="9" viewBox="0 0 16 9" fill="none" xmlns="http://www.w3.org/2000/svg">
<path d="M3.5 5H12.5C12.78 5 13 4.78 13 4.5C13 4.22 12.78 4 12.5 4H3.5C3.22 4 3 4.22 3 4.5C3 4.78 3.22 5 3.5 5Z" fill="#CCCCCC"/>
<path d="M6 8.49998C6.06558 8.50078 6.13059 8.48785 6.19087 8.46201C6.25115 8.43618 6.30535 8.39802 6.35 8.34998C6.55 8.14998 6.55 7.83998 6.35 7.63998L3.2 4.48998L6.35 1.33998C6.55 1.13998 6.55 0.82998 6.35 0.62998C6.15 0.42998 5.84 0.42998 5.64 0.62998L2.14 4.12998C1.94 4.32998 1.94 4.63998 2.14 4.83998L5.64 8.33998C5.74 8.43998 5.87 8.48998 5.99 8.48998L6 8.49998Z" fill="#CCCCCC"/>
</svg>
