<svg width="16" height="16" viewBox="0 0 16 16" fill="none" xmlns="http://www.w3.org/2000/svg">
<path d="M2.36683 8.40201H9C9.2412 8.40201 9.40201 8.24121 9.40201 8C9.40201 7.75879 9.2412 7.59799 9 7.59799H2.36683L3.53266 6.43216C3.69347 6.27136 3.69347 6.03015 3.53266 5.86935C3.37186 5.70854 3.13065 5.70854 2.96985 5.86935L1.1206 7.71859C1.0804 7.75879 1.0402 7.799 1.0402 7.8392C1 7.8794 1 7.9598 1 8C1 8.0402 1 8.1206 1.0402 8.1608C1.0804 8.20101 1.0804 8.24121 1.1206 8.28141L2.96985 10.1307C3.05025 10.2111 3.17085 10.2513 3.25126 10.2513C3.33166 10.2513 3.45226 10.2111 3.53266 10.1307C3.69347 9.96985 3.69347 9.72864 3.53266 9.56784L2.36683 8.40201Z" fill="#777777"/>
<path d="M13.0202 0H6.82922C5.7438 0 4.85938 0.884422 4.85938 1.96985V5.62814C4.85938 5.86935 5.02018 6.03015 5.26138 6.03015C5.50259 6.03015 5.6634 5.86935 5.6634 5.62814V1.96985C5.6634 1.32663 6.18601 0.80402 6.82922 0.80402H13.0604C13.7036 0.80402 14.2262 1.32663 14.2262 1.96985V14.0302C14.2262 14.6734 13.7036 15.196 13.0604 15.196H6.82922C6.18601 15.196 5.6634 14.6734 5.6634 14.0302V10.5729C5.6634 10.3317 5.50259 10.1709 5.26138 10.1709C5.02018 10.1709 4.85938 10.3317 4.85938 10.5729V14.0302C4.85938 15.1156 5.7438 16 6.82922 16H13.0604C14.1458 16 15.0302 15.1156 15.0302 14.0302V1.96985C15.0302 0.884422 14.1458 0 13.0202 0Z" fill="#777777"/>
</svg>
