<svg width="29" height="21" viewBox="0 0 29 21" fill="none" xmlns="http://www.w3.org/2000/svg">
<path d="M23.516 12.4142L22.381 12.1828C22.3567 12.1779 22.3311 12.1828 22.31 12.1964C22.289 12.2102 22.2743 12.2321 22.2694 12.2564C22.158 12.8023 21.9839 13.3385 21.7512 13.85C21.7231 13.9113 21.694 13.9734 21.6644 14.0343C20.7947 15.8178 19.2825 17.1558 17.4066 17.8014C16.6192 18.0728 15.8033 18.2099 14.9822 18.2099C13.8534 18.2099 12.7601 17.9554 11.7319 17.454C10.0667 16.6419 8.78543 15.2691 8.10257 13.572L9.65686 14.3299C9.67943 14.3409 9.70545 14.3426 9.7291 14.3342C9.75275 14.3263 9.77232 14.3091 9.78328 14.2863L10.2911 13.2452C10.3139 13.1981 10.2946 13.1416 10.2475 13.1183L6.81855 11.4462C6.77168 11.4237 6.71513 11.4428 6.69212 11.4895L6.43713 12.0093L5.36531 14.1917C5.36273 14.1966 5.3608 14.2022 5.35929 14.2076L5.00969 14.9214C4.98669 14.9685 5.00604 15.025 5.05291 15.0483L6.09311 15.558C6.11547 15.5694 6.14171 15.5707 6.16536 15.5625C6.18901 15.5544 6.20857 15.5374 6.21975 15.5146L6.88778 14.1519C7.17181 14.8343 7.53753 15.475 7.97701 16.0592C8.81511 17.1738 9.87961 18.0506 11.1408 18.6657C12.2053 19.1848 13.3401 19.48 14.5137 19.543C14.671 19.5514 14.8308 19.5561 14.9877 19.5561C15.9585 19.5561 16.9196 19.3944 17.845 19.0758C18.9224 18.7049 19.9024 18.139 20.7579 17.3931C21.6439 16.6212 22.3563 15.6898 22.8757 14.6253C22.9106 14.5535 22.945 14.4804 22.9778 14.4077C23.2524 13.8042 23.4586 13.171 23.5902 12.5256C23.6005 12.4744 23.5674 12.4243 23.516 12.4142Z" fill="#333333"/>
<path d="M24.9953 6.55407C24.9873 6.53042 24.9701 6.51085 24.9473 6.49967L23.9084 5.98752C23.8858 5.97634 23.86 5.97462 23.8362 5.98279C23.8123 5.99096 23.7929 6.00816 23.7815 6.03053L23.0965 7.42076C22.7317 6.53687 22.2281 5.72436 21.5986 5.00301C20.8273 4.11933 19.8974 3.4083 18.8349 2.89013C17.7704 2.37089 16.6356 2.07568 15.4618 2.01269C15.3044 2.0043 15.1449 2 14.988 2C14.0172 2 13.0559 2.16147 12.1305 2.48011C11.0531 2.85121 10.0731 3.41733 9.21759 4.16276C8.33176 4.93485 7.61923 5.86604 7.09999 6.93076C6.7764 7.59427 6.53731 8.29412 6.3896 9.01096C6.38466 9.03547 6.38939 9.06105 6.40315 9.08212C6.41691 9.10319 6.43841 9.11781 6.46313 9.12276L7.59773 9.35669C7.6489 9.36722 7.699 9.33433 7.70953 9.28316C7.83467 8.67662 8.03699 8.08384 8.31134 7.5216C9.18104 5.73833 10.6934 4.40034 12.5693 3.75446C13.3567 3.48333 14.1724 3.34595 14.994 3.34595C16.1223 3.34595 17.2159 3.6003 18.2438 4.1017C19.8878 4.90346 21.1619 6.26209 21.854 7.9443L20.341 7.215C20.2937 7.19242 20.2374 7.21199 20.2146 7.25929L19.7115 8.30294C19.6889 8.35002 19.7087 8.40657 19.7557 8.42915L23.183 10.081C23.1965 10.0873 23.2103 10.0903 23.224 10.0903C23.2589 10.0903 23.2924 10.0709 23.309 10.0374L24.9899 6.62674C25.0017 6.60395 25.0032 6.57793 24.9953 6.55407Z" fill="#333333"/>
<line x1="0.5547" y1="1.16795" x2="27.5547" y2="19.1679" stroke="#F36156" stroke-width="2"/>
</svg>
