<svg width="20" height="20" viewBox="0 0 20 20" fill="none" xmlns="http://www.w3.org/2000/svg">
<path d="M18.516 11.4142L17.381 11.1828C17.3567 11.1779 17.3311 11.1828 17.31 11.1964C17.289 11.2102 17.2743 11.2321 17.2694 11.2564C17.158 11.8023 16.9839 12.3385 16.7512 12.85C16.7231 12.9113 16.694 12.9734 16.6644 13.0343C15.7947 14.8178 14.2825 16.1558 12.4066 16.8014C11.6192 17.0728 10.8033 17.2099 9.98216 17.2099C8.85337 17.2099 7.76006 16.9554 6.73189 16.454C5.06666 15.6419 3.78543 14.2691 3.10257 12.572L4.65686 13.3299C4.67943 13.3409 4.70545 13.3426 4.7291 13.3342C4.75275 13.3263 4.77232 13.3091 4.78328 13.2863L5.29113 12.2452C5.31392 12.1981 5.29457 12.1416 5.24748 12.1183L1.81855 10.4462C1.77168 10.4237 1.71513 10.4428 1.69212 10.4895L1.43713 11.0093L0.365314 13.1917C0.362734 13.1966 0.360799 13.2022 0.359294 13.2076L0.00969226 13.9214C-0.0133135 13.9685 0.00603713 14.025 0.0529087 14.0483L1.09311 14.558C1.11547 14.5694 1.14171 14.5707 1.16536 14.5625C1.18901 14.5544 1.20857 14.5374 1.21975 14.5146L1.88778 13.1519C2.17181 13.8343 2.53753 14.475 2.97701 15.0592C3.81511 16.1738 4.87961 17.0506 6.14084 17.6657C7.20534 18.1848 8.34015 18.48 9.51366 18.543C9.67104 18.5514 9.83079 18.5561 9.98775 18.5561C10.9585 18.5561 11.9196 18.3944 12.845 18.0758C13.9224 17.7049 14.9024 17.139 15.7579 16.3931C16.6439 15.6212 17.3563 14.6898 17.8757 13.6253C17.9106 13.5535 17.945 13.4804 17.9778 13.4077C18.2524 12.8042 18.4586 12.171 18.5902 11.5256C18.6005 11.4744 18.5674 11.4243 18.516 11.4142Z" fill="#333333"/>
<path d="M19.9953 5.55407C19.9873 5.53042 19.9701 5.51085 19.9473 5.49967L18.9084 4.98752C18.8858 4.97634 18.86 4.97462 18.8362 4.98279C18.8123 4.99096 18.7929 5.00816 18.7815 5.03053L18.0965 6.42076C17.7317 5.53687 17.2281 4.72435 16.5986 4.00301C15.8273 3.11933 14.8974 2.4083 13.8349 1.89013C12.7704 1.37089 11.6356 1.07568 10.4618 1.01269C10.3044 1.0043 10.1449 1 9.98796 1C9.0172 1 8.0559 1.16147 7.13051 1.48011C6.05311 1.85121 5.07311 2.41733 4.21759 3.16276C3.33176 3.93485 2.61923 4.86604 2.09999 5.93076C1.7764 6.59427 1.53731 7.29412 1.3896 8.01096C1.38466 8.03547 1.38939 8.06105 1.40315 8.08212C1.41691 8.10319 1.43841 8.11781 1.46313 8.12276L2.59773 8.35669C2.6489 8.36722 2.699 8.33433 2.70953 8.28315C2.83467 7.67662 3.03699 7.08384 3.31134 6.5216C4.18104 4.73833 5.6934 3.40034 7.56934 2.75446C8.3567 2.48333 9.17243 2.34595 9.99398 2.34595C11.1223 2.34595 12.2159 2.6003 13.2438 3.1017C14.8878 3.90346 16.1619 5.26209 16.854 6.9443L15.341 6.215C15.2937 6.19242 15.2374 6.21199 15.2146 6.25929L14.7115 7.30294C14.6889 7.35002 14.7087 7.40657 14.7557 7.42915L18.183 9.08105C18.1965 9.08728 18.2103 9.09029 18.224 9.09029C18.2589 9.09029 18.2924 9.07094 18.309 9.0374L19.9899 5.62674C20.0017 5.60395 20.0032 5.57793 19.9953 5.55407Z" fill="#333333"/>
</svg>
