<svg width="20" height="20" viewBox="0 0 20 20" fill="none" xmlns="http://www.w3.org/2000/svg">
<g clip-path="url(#clip0_280_923)">
<path d="M0.664062 18.2109L5.26562 13.6094C4.125 12.2188 3.4375 10.4375 3.4375 8.49609C3.4375 4.04297 7.05078 0.429688 11.5039 0.429688C15.9609 0.429688 19.5703 4.04297 19.5703 8.49609C19.5703 12.9492 15.9609 16.5625 11.5039 16.5625C9.5625 16.5625 7.78516 15.8789 6.39453 14.7383L1.79297 19.3359C1.48047 19.6484 0.976562 19.6484 0.664062 19.3359C0.351562 19.0273 0.351562 18.5195 0.664062 18.2109ZM11.5039 14.957C15.0703 14.957 17.9688 12.0586 17.9688 8.49609C17.9688 4.93359 15.0703 2.03125 11.5039 2.03125C7.94141 2.03125 5.03906 4.93359 5.03906 8.49609C5.03906 12.0586 7.94141 14.957 11.5039 14.957Z" fill="#333333"/>
</g>
<defs>
<clipPath id="clip0_280_923">
<rect width="20" height="20" fill="white"/>
</clipPath>
</defs>
</svg>
