<svg width="17" height="24" viewBox="0 0 17 24" fill="none" xmlns="http://www.w3.org/2000/svg">
    <path
        d="M8.05575 7.08324C8.75467 7.07623 9.43589 6.86258 10.0136 6.46918C10.5914 6.07578 11.0398 5.52023 11.3024 4.87249C11.565 4.22475 11.6301 3.51378 11.4895 2.82912C11.3489 2.14445 11.0088 1.51671 10.5121 1.02493C10.0154 0.533156 9.38434 0.199339 8.69831 0.0655195C8.01228 -0.0683006 7.302 0.00385954 6.6569 0.272913C6.0118 0.541966 5.46073 0.995883 5.07309 1.5775C4.68546 2.15912 4.47858 2.84243 4.47852 3.54139C4.48432 4.48509 4.8642 5.38796 5.53482 6.05194C6.20543 6.71593 7.11203 7.08682 8.05575 7.08324Z"
        fill="#333333" />
    <path
        d="M15.867 2.61748C15.7703 2.52967 15.6565 2.46291 15.5326 2.42144C15.4088 2.37996 15.2777 2.36468 15.1476 2.37655C15.0176 2.38843 14.8914 2.4272 14.7771 2.49042C14.6628 2.55364 14.5629 2.63992 14.4838 2.74378L11.2149 6.01265C11.209 6.01704 11.2029 6.02112 11.1965 6.02486C10.8186 6.49401 10.3403 6.87252 9.79681 7.13257C9.25336 7.39262 8.65855 7.52761 8.05608 7.52761C7.45361 7.52761 6.8588 7.39262 6.31535 7.13257C5.77189 6.87252 5.29361 6.49401 4.91564 6.02486C4.9093 6.02112 4.90316 6.01704 4.89725 6.01265L1.62839 2.74378C1.54928 2.63983 1.44942 2.55347 1.33513 2.49019C1.22085 2.42691 1.09466 2.38809 0.964566 2.37622C0.834475 2.36434 0.703337 2.37965 0.579485 2.42119C0.455632 2.46272 0.341776 2.52957 0.245151 2.61748C0.157244 2.71415 0.0904014 2.82804 0.0488695 2.95193C0.00733757 3.07581 -0.00797604 3.20698 0.00390134 3.3371C0.0157787 3.46722 0.0545873 3.59345 0.117862 3.70777C0.181137 3.82209 0.267496 3.922 0.371452 4.00115L4.87963 8.50931C4.92122 8.55116 4.9447 8.60769 4.945 8.6667V22.8888C4.945 23.1835 5.06207 23.4661 5.27044 23.6745C5.47881 23.8828 5.76142 23.9999 6.05611 23.9999C6.35079 23.9999 6.6334 23.8828 6.84177 23.6745C7.05015 23.4661 7.16721 23.1835 7.16721 22.8888V17.7777C7.16721 17.542 7.26086 17.3159 7.42756 17.1492C7.59425 16.9825 7.82034 16.8889 8.05609 16.8889C8.29184 16.8889 8.51793 16.9825 8.68463 17.1492C8.85132 17.3159 8.94497 17.542 8.94497 17.7777V22.8888C8.94497 23.1835 9.06203 23.4661 9.27041 23.6745C9.47878 23.8828 9.76139 23.9999 10.0561 23.9999C10.3508 23.9999 10.6334 23.8828 10.8417 23.6745C11.0501 23.4661 11.1672 23.1835 11.1672 22.8888V8.6667C11.1675 8.60769 11.191 8.55116 11.2325 8.50931L15.7407 4.00115C15.8447 3.922 15.931 3.82209 15.9943 3.70777C16.0576 3.59345 16.0964 3.46722 16.1083 3.3371C16.1201 3.20698 16.1048 3.07581 16.0633 2.95193C16.0218 2.82804 15.9549 2.71415 15.867 2.61748Z"
        fill="#333333" />
</svg>